<?xml version="1.0" standalone="no"?><!DOCTYPE svg PUBLIC "-//W3C//DTD SVG 1.1//EN"   "http://www.w3.org/Graphics/SVG/1.1/DTD/svg11.dtd"><svg width="864pt" height="864pt" viewBox="0 0 864 864" version="1.1"    xmlns="http://www.w3.org/2000/svg" xmlns:xlink="http://www.w3.org/1999/xlink">  <defs>  </defs>   <path id="Path0" stroke-width="0" stroke="none" stroke-opacity="0" fill="#000000" fill-opacity="1" fill-rule="evenodd" stroke-linecap="round" stroke-linejoin="round" d="M386.7,850.1 C377.8,849.3 371.8,848.4 355.7,845.5 343.2,843.3 338.8,842 336.6,840.2 333.9,837.9 333.2,834.3 334.9,831.6 335.6,830.6 446.8,719 582.2,583.8 790.9,375.1 828.2,337.5 828.2,335.9 828.2,331.5 820.4,305.5 818.5,303.6 818,303.1 817,302.6 816.4,302.6 815.9,302.6 698,419.9 554.4,563.3 410.9,706.7 292.7,824.5 291.7,825 290.7,825.5 288.8,826 287.6,826 282.1,826 238.6,806.5 235.7,802.8 234.7,801.6 234.2,799.9 234.2,798 234.2,798 234.2,795.1 234.2,795.1 234.2,795.1 306.9,722.4 306.9,722.4 346.9,682.4 381,648.1 382.7,646.1 384.5,644.2 386.7,641.6 387.8,640.5 390.9,637.1 405.1,618 405.1,617.2 405.1,617.1 407.1,613.7 409.6,609.6 419.9,592.5 424,576.5 424.7,549.9 424.7,549.9 425.1,534.1 425.1,534.1 425.1,534.1 382.3,491.3 382.3,491.3 356,465 339.4,447.8 339.1,446.7 338.9,445.7 338.8,424.2 338.9,398.8 338.9,398.8 339.1,352.8 339.1,352.8 339.1,352.8 341,350.9 341,350.9 342,349.9 344.1,348.8 345.9,348.5 350.9,347.5 515.8,347.8 519.5,348.8 521.5,349.3 523.1,350.3 524.1,351.6 525.5,353.5 525.6,354.2 525.8,397.8 525.9,422.2 525.8,443.4 525.6,444.9 525.2,447.6 522.2,450.7 482.5,490.6 457.2,516 439.7,534.1 439.5,535.1 439.3,536 438.8,544.5 438.4,554 437.8,567.3 437.3,573.1 435.9,579.4 430.4,605.6 418.8,626.5 394.9,653.2 390.4,658.2 356.9,692.1 320.6,728.5 272.4,776.7 254.6,794.9 254.8,795.9 255.1,797.4 259.5,799.8 274.9,806.6 284.3,810.8 285,811 286.8,810.1 287.8,809.6 407.3,690.6 552.2,545.8 697.2,400.9 816.6,281.8 817.6,281.2 820.3,279.4 823,279.7 825.6,282.3 827.7,284.3 828.6,286.6 832.3,298 834.7,305.4 837.3,314 838.1,317.1 839,320.2 840.3,325 841.1,327.7 843.1,334.7 843.5,340.7 842.1,343.3 841,345.3 706.4,480.1 474.9,710.9 388.7,796.8 357.8,828 357.8,829.1 357.8,831.6 360.5,832.2 386.1,835.7 388.6,836.1 392.4,836.4 394.4,836.4 394.4,836.4 398.2,836.4 398.2,836.4 398.2,836.4 619.4,615.4 619.4,615.4 741.1,493.8 841.1,394.1 841.6,393.7 843,392.8 847.7,392.8 849.4,393.7 850.2,394.1 851.3,395.5 852,396.7 853.2,398.8 853.3,401.8 853.3,431.1 853.3,455.8 853.1,464.2 852.3,467.1 852.3,467.1 851.4,471 851.4,471 851.4,471 672.1,650.4 672.1,650.4 573.5,749 492.6,830.4 492.4,831.3 491.7,833.6 494.2,833.9 502,832.5 505.6,831.9 510.5,831.1 512.8,830.7 515.2,830.4 520.3,829.3 524.1,828.2 537.3,824.8 538.3,824.6 543.3,823.1 546.1,822.4 548.9,821.4 549.7,821 550.4,820.6 612.3,758.9 687.3,683.9 762.3,608.9 824.5,547.1 825.7,546.5 828.4,545.2 829.5,545.2 832.2,546.9 835,548.6 835.8,551.8 834.6,556.6 833.4,561.6 827.6,578 824.6,585.1 823.9,586.8 822.1,591.2 820.7,594.9 815.5,608.6 797.2,643.4 789.6,654.4 788.3,656.3 787.2,657.9 787.2,658.1 787.2,659 774.9,676.7 767.2,686.7 752.6,705.9 732.9,727.9 728.3,730.1 726.2,731.1 725.5,731.1 723.5,730.3 720.5,729 719.4,727.6 718.9,724.3 718.5,721.3 719,720.5 727.3,711.8 729.9,709.1 733.1,705.6 734.4,704 735.8,702.5 739.4,698.3 742.5,694.8 752.7,683.3 770.7,658.4 780,642.9 792.6,622 804.5,598.5 807.3,589.3 808.3,585.8 808.3,585.8 806.8,585.8 805.7,585.8 770.4,620.6 681.9,709.1 599.6,791.3 557.4,833 555.4,834.1 553.8,834.9 551.9,835.6 551.3,835.7 550.8,835.7 548.2,836.3 545.7,837.1 537.1,839.7 531.2,841.2 528,841.7 526.3,841.9 522.8,842.5 520.3,843.1 517.7,843.6 512,844.8 507.5,845.6 503.1,846.4 497.2,847.5 494.5,848.1 491.8,848.6 485.1,849.4 479.7,849.8 467.9,850.7 465,850.1 463.3,846.9 460.7,841.9 448.3,854.7 650,653.4 769.4,534.1 837.2,465.9 837.9,464.4 838.6,462.6 839.1,457.1 839.6,444.4 840.6,421.5 840,416.9 836.3,418.9 835.7,419.3 738.5,516.2 620.3,634.3 468.6,785.9 404.7,849.4 402.8,850.1 399.9,851.4 399.1,851.4 386.7,850.1 Z M466.3,487.1 C490.3,463 498.4,454.5 498.2,453.4 498,452 497.8,452 432.3,452 432.3,452 366.6,452 366.6,452 366.6,452 366.4,453.5 366.4,453.5 366.3,454.7 373.2,462 398.2,487.2 424.5,513.6 430.6,519.3 432.1,519.3 433.8,519.4 439.1,514.4 466.3,487.1 Z M510.6,436.6 C511.7,435.8 511.8,433.1 511.6,400.2 511.4,365.9 511.4,364.6 510.1,363.7 508.9,362.8 497.1,362.7 432,362.7 385,362.7 354.9,362.9 354.3,363.3 353.4,363.9 353.2,368.9 353,399.8 352.9,425.9 353.1,435.8 353.6,436.5 354.8,437.9 508.7,438 510.6,436.6 Z M137.5,730.6 C133.8,730.1 110,704.5 97.1,687.3 69.8,650.8 52.2,619.1 37.5,580.1 23.4,542.7 15.3,506.1 11.7,464 10.5,449.4 10.1,413.5 11,401.1 15.8,336.6 34.5,275.9 66.5,221.1 69.9,215.3 74,208.3 75.5,205.6 84.1,191 111.2,156.6 126.7,140.7 156.6,110 181.9,89.8 216.2,69.3 224.5,64.3 243.1,54.1 243.8,54.1 244,54.1 248.5,52 253.8,49.4 275.4,39.1 279,37.7 304.5,29.7 349.1,15.6 384.1,10.2 430.9,10.2 464.5,10.1 489.6,12.7 524.7,19.9 542.8,23.6 576.5,34.1 593.1,41.3 627.1,55.8 667.4,79.5 690.8,98.5 708.9,113.2 728.4,130.8 730.9,134.4 732.7,137.2 732.5,139.9 730.3,141.9 725.7,146.1 723,145 711.5,134.1 682.5,106.7 651.3,85 613.8,66.3 581.9,50.3 562,43 527.7,34.8 501.1,28.3 491.6,26.8 464.5,24.8 417.8,21.2 374.2,25.1 329.9,36.8 298.2,45.2 277.8,52.7 253.2,65.1 248.8,67.3 242.9,70.2 240.2,71.6 226.4,78.4 204.4,92.1 191,102.2 142.2,139 104.8,181.3 76.7,231.2 63.2,255.1 57,268.8 46.6,297.3 35.5,328 28,363.7 25.1,399.7 24.2,411.4 24.6,451 25.9,464.7 29.5,505.5 38.1,542.7 52,578.6 67,617.3 89.3,656 114.7,687.1 117.3,690.2 119.6,692.9 119.8,693.1 120.1,693.3 122.3,695.8 124.7,698.7 127.2,701.6 132.8,707.7 137.2,712.2 144.8,719.9 145.2,720.6 145.2,723.3 145.2,725.3 144.7,726.8 143.5,728.2 141.6,730.5 140.2,731 137.5,730.6 Z M212,327.4 C208.9,326.8 206.3,324.1 205.7,320.8 204.9,316.7 205.3,269.9 206.2,267.4 206.8,265.8 207.9,264.5 209.6,263.6 212.1,262.3 217.6,262.3 432.6,262.3 675.6,262.4 656.3,262 657.9,266.7 658.4,268.2 658.7,277.8 658.7,295 658.7,323 658.5,324.8 655,326.8 653.7,327.5 615.2,327.7 434.1,327.8 313.5,327.9 213.5,327.7 212,327.4 Z M642.1,313.3 C642.1,313.3 644.2,312.8 644.2,312.8 644.2,312.8 644.4,295.9 644.4,295.9 644.5,286 644.3,278.5 643.9,277.9 643.3,277 619,276.9 432.4,276.9 260.5,276.9 221.4,277 220.7,277.8 219.5,279 218.9,309.6 220,311.7 220.5,312.5 221.7,313.3 222.7,313.4 226.6,314 640.1,313.9 642.1,313.3 Z M314.7,242.1 C314.7,242.1 304.4,241.9 304.4,241.9 304.4,241.9 302.3,239.7 302.3,239.7 302.3,239.7 300.3,237.6 300.3,237.6 300.3,237.6 300.3,210.5 300.3,210.5 300.3,210.5 300.3,183.3 300.3,183.3 300.3,183.3 302.6,181 302.6,181 302.6,181 304.9,178.7 304.9,178.7 304.9,178.7 334.9,178.4 334.9,178.4 360.6,178.1 365,177.9 365.6,177 366,176.4 366.3,167.8 366.3,157.5 366.3,146.2 366.6,138.2 367.1,136.9 368.5,132.6 370.2,132.2 384.5,131.9 396.7,131.7 397.4,131.6 398.4,130.1 399.3,128.9 399.5,125.6 399.5,111.5 399.5,102.1 399.8,93.6 400.2,92.6 400.6,91.6 401.9,90.2 403.2,89.4 405.4,88.1 406.8,88 432.1,88 449.5,88 459.3,88.3 460.4,88.8 461.3,89.2 462.6,90.4 463.4,91.4 464.7,93.1 464.8,94.7 465.2,111.8 465.4,121.9 465.8,130.5 466.1,130.8 466.4,131.2 472.7,131.6 480,131.8 492.9,132.1 493.4,132.2 495.1,133.8 496.1,134.8 497.3,136.7 497.7,138.1 498,139.5 498.4,148.5 498.4,158.2 498.4,168.1 498.7,176.4 499.1,177 499.6,177.9 504.1,178.1 529.8,178.4 529.8,178.4 559.8,178.7 559.8,178.7 559.8,178.7 561.7,180.6 561.7,180.6 562.9,181.8 563.7,183.7 564.1,185.9 564.9,190.5 564.9,231.6 564.1,235.5 563.8,237.2 562.7,239.3 561.8,240.2 561.8,240.2 560.1,241.9 560.1,241.9 560.1,241.9 442.6,242.1 442.6,242.1 377.9,242.2 320.3,242.2 314.7,242.1 Z M549.5,226.2 C550.4,224.9 550.6,222.2 550.6,210.2 550.6,202.2 550.4,195.3 550.1,194.9 548.5,192.6 546.4,192.4 517.6,192.5 501.8,192.5 475.7,192.6 459.6,192.5 459.6,192.5 430.4,192.5 430.4,192.5 430.4,192.5 428,190.1 428,190.1 424,186 425.5,180.7 431.1,179.1 432.7,178.7 443.5,178.4 457.8,178.4 479.4,178.4 482.1,178.2 482.9,177.2 483.6,176.3 483.9,172.7 484.1,162.4 484.1,162.4 484.3,148.7 484.3,148.7 484.3,148.7 482.5,147 482.5,147 482.5,147 480.8,145.2 480.8,145.2 480.8,145.2 456,145.2 456,145.2 439.1,145.2 430.7,144.9 429.6,144.4 425.8,142.5 424.6,138.5 426.8,135.4 428.7,132.6 431.9,131.8 440.4,131.8 451.4,131.8 451,132.3 451,116.6 451,104.7 451,104.3 449.5,103.2 447.1,101.6 417.5,101.6 415.2,103.2 413.6,104.3 413.6,104.6 413.6,120.3 413.6,137.5 413.2,141 410.8,143.4 409.5,144.7 408.4,144.9 396,145.2 386.4,145.4 382.3,145.8 381.7,146.5 381,147.1 380.7,152.3 380.4,167.3 380.1,185.8 380,187.3 378.7,189.1 377.9,190.2 376.4,191.3 375.5,191.7 374.4,192.2 362.4,192.5 344.9,192.6 317,192.8 316,192.9 315,194.3 313.5,196.3 313.9,226.1 315.4,227.1 316.1,227.5 360.7,227.8 432.5,227.8 432.5,227.8 548.4,227.8 548.4,227.8 548.4,227.8 549.5,226.2 549.5,226.2 Z M424.1,425.5 C421,424.6 414.5,419.9 411.6,416.6 405.8,410.1 404.1,399.4 407.3,390.7 409.5,384.9 415.3,379 421.7,376 426.1,373.9 426.8,373.8 433.2,374.1 439.2,374.3 440.6,374.6 444,376.4 449,379.2 453,383.3 455.6,388.5 457.6,392.3 457.8,393.2 457.8,400.1 457.8,406.2 457.5,408.1 456.2,410.8 454,415.6 448.1,421.6 443.1,424.1 439.2,426 438.2,426.2 432.4,426.1 428.9,426.1 425.1,425.8 424.1,425.5 Z M438.5,410.8 C442,408.8 443.6,405.8 443.9,400.8 444.1,396.9 443.9,395.8 442.4,393.7 438.5,387.9 431.3,386.2 425.7,389.8 422.6,391.8 420,396.5 420,400.1 420,405.3 423.9,410.5 429,412.1 431.5,412.9 436,412.2 438.5,410.8 Z " />
</svg>
