<svg width="203" height="30" viewBox="0 0 203 30" fill="none" xmlns="http://www.w3.org/2000/svg">
<path d="M11.6074 0C13.2824 0 14.8251 0.292079 16.2357 0.876238C17.6462 1.4505 18.8657 2.25743 19.8942 3.29703C20.9325 4.33663 21.7406 5.55941 22.3185 6.96535C22.8964 8.37129 23.1854 9.91089 23.1854 11.5842C23.1854 13.1485 22.9258 14.604 22.4067 15.9505C21.8875 17.2871 21.1578 18.4653 20.2174 19.4851C19.2869 20.5049 18.1849 21.3119 16.9115 21.9059C17.6266 22.0743 18.3123 22.2178 18.9685 22.3366C19.6248 22.4554 20.2909 22.5495 20.9668 22.6188C21.6524 22.6881 22.3773 22.7376 23.1413 22.7673L22.1716 26.4208C20.7709 26.1337 19.5318 25.8416 18.4543 25.5446C17.3768 25.2475 16.3532 24.9059 15.3835 24.5198C14.4235 24.1436 13.3901 23.6881 12.2833 23.1535H11.6074C9.9324 23.1535 8.38475 22.8663 6.96444 22.2921C5.55392 21.7079 4.32461 20.896 3.27652 19.8564C2.23822 18.8168 1.43011 17.5941 0.852189 16.1881C0.284063 14.7822 0 13.2475 0 11.5842C0 9.92079 0.284063 8.38614 0.852189 6.9802C1.43011 5.56436 2.23822 4.33663 3.27652 3.29703C4.32461 2.24752 5.55392 1.43564 6.96444 0.861386C8.38475 0.287129 9.9324 0 11.6074 0ZM11.6074 3.99505C10.6083 3.99505 9.68263 4.18812 8.83044 4.57426C7.98804 4.95049 7.2485 5.48515 6.61181 6.17822C5.98491 6.86139 5.49515 7.66337 5.14252 8.58416C4.79968 9.50495 4.62827 10.505 4.62827 11.5842C4.62827 12.6634 4.79968 13.6634 5.14252 14.5842C5.49515 15.505 5.98491 16.3119 6.61181 17.0049C7.2485 17.6881 7.98804 18.2228 8.83044 18.6089C9.68263 18.9851 10.6083 19.1733 11.6074 19.1733C12.5967 19.1733 13.5126 18.9802 14.355 18.5941C15.2072 18.2079 15.9467 17.6733 16.5736 16.9901C17.2005 16.297 17.6854 15.4951 18.0282 14.5842C18.3808 13.6634 18.5571 12.6634 18.5571 11.5842C18.5571 10.505 18.3808 9.50495 18.0282 8.58416C17.6854 7.66337 17.2005 6.86139 16.5736 6.17822C15.9467 5.48515 15.2072 4.95049 14.355 4.57426C13.5126 4.18812 12.5967 3.99505 11.6074 3.99505Z" fill="#FF7322"/>
<path d="M80.0202 7.12871C81.0585 7.12871 82.0087 7.33663 82.8706 7.75248C83.7424 8.15842 84.4918 8.72277 85.1186 9.44554L85.3097 7.42574H89.0123V21.8614C89.0123 23.505 88.6547 24.9356 87.9397 26.1535C87.2344 27.3812 86.2353 28.3267 84.9423 28.9901C83.6494 29.6634 82.136 30 80.4022 30C77.9926 30 75.8083 29.2376 73.8492 27.7129L75.5536 24.2376C76.8563 25.5347 78.3746 26.1832 80.1084 26.1832C81.0389 26.1832 81.8519 25.995 82.5474 25.6188C83.2527 25.2426 83.8012 24.7178 84.193 24.0446C84.5946 23.3713 84.7954 22.5891 84.7954 21.698V20.4802C84.1881 21.0941 83.4779 21.5792 82.6649 21.9356C81.8519 22.2822 80.9655 22.4554 80.0055 22.4554C78.6832 22.4554 77.4979 22.1238 76.4498 21.4604C75.4017 20.7871 74.5789 19.8762 73.9814 18.7277C73.3839 17.5693 73.0852 16.2574 73.0852 14.7921C73.0852 13.3168 73.3839 12.005 73.9814 10.8564C74.5789 9.70792 75.4017 8.80198 76.4498 8.13861C77.4979 7.46535 78.6881 7.12871 80.0202 7.12871ZM30.4023 15.0297C30.4023 16.1881 30.6716 17.099 31.2104 17.7624C31.7589 18.4158 32.5034 18.7426 33.4437 18.7426C34.4232 18.7426 35.1971 18.401 35.7652 17.7178C36.3431 17.0248 36.6321 16.0891 36.6321 14.9109V7.42574H40.8489V22.2772H37.4255L37.2786 19.901C36.7594 20.7723 36.0688 21.4356 35.2069 21.8911C34.3547 22.3465 33.3555 22.5743 32.2095 22.5743C30.3288 22.5743 28.8546 21.9901 27.7869 20.8218C26.7193 19.6535 26.1854 18.0495 26.1854 16.0099V7.42574H30.4023V15.0297ZM51.2074 7.12871C52.7257 7.12871 54.0627 7.4901 55.2186 8.21287C56.3744 8.92574 57.2756 9.92574 57.9221 11.2129C58.5686 12.4901 58.8918 13.9703 58.8918 15.6535V16.1287H48.0631C48.2395 16.7129 48.5235 17.2277 48.9153 17.6733C49.3169 18.1089 49.8165 18.4554 50.414 18.7129C51.0213 18.9703 51.7119 19.099 52.4857 19.099C53.9844 19.099 55.3802 18.6089 56.6732 17.6287L57.9662 20.6139C56.1442 21.9208 54.1509 22.5743 51.9862 22.5743C50.3797 22.5743 48.9349 22.2277 47.6517 21.5347C46.3784 20.8317 45.3694 19.8812 44.625 18.6832C43.8904 17.4851 43.523 16.1337 43.523 14.6287C43.523 13.1931 43.8561 11.9109 44.5222 10.7822C45.198 9.65347 46.1139 8.76238 47.2697 8.10891C48.4256 7.45545 49.7381 7.12871 51.2074 7.12871ZM99.2238 7.12871C100.742 7.12871 102.079 7.4901 103.235 8.21287C104.391 8.92574 105.292 9.92574 105.938 11.2129C106.585 12.4901 106.908 13.9703 106.908 15.6535V16.1287H96.0796C96.2559 16.7129 96.5399 17.2277 96.9317 17.6733C97.3334 18.1089 97.8329 18.4554 98.4304 18.7129C99.0377 18.9703 99.7283 19.099 100.502 19.099C102.001 19.099 103.397 18.6089 104.69 17.6287L105.983 20.6139C104.161 21.9208 102.167 22.5743 100.003 22.5743C98.3961 22.5743 96.9513 22.2277 95.6682 21.5347C94.3948 20.8317 93.3859 19.8812 92.6414 18.6832C91.9068 17.4851 91.5395 16.1337 91.5395 14.6287C91.5395 13.1931 91.8725 11.9109 92.5386 10.7822C93.2144 9.65347 94.1303 8.76238 95.2861 8.10891C96.442 7.45545 97.7545 7.12871 99.2238 7.12871ZM124.716 22.2772H121.013L120.793 20.2574C120.166 20.9703 119.412 21.5347 118.53 21.9505C117.659 22.3663 116.703 22.5743 115.665 22.5743C114.323 22.5743 113.123 22.2426 112.065 21.5792C111.017 20.9059 110.19 19.9851 109.582 18.8168C108.975 17.6485 108.671 16.3267 108.671 14.8515C108.671 13.3663 108.975 12.0446 109.582 10.8861C110.19 9.71782 111.017 8.80198 112.065 8.13861C113.123 7.46535 114.323 7.12871 115.665 7.12871C116.625 7.12871 117.517 7.30693 118.339 7.66337C119.172 8.0099 119.892 8.49505 120.499 9.11881V0H124.716V22.2772ZM144.801 15.0297C144.801 16.1881 145.071 17.099 145.609 17.7624C146.158 18.4158 146.902 18.7426 147.843 18.7426C148.822 18.7426 149.596 18.401 150.164 17.7178C150.742 17.0248 151.031 16.0891 151.031 14.9109V7.42574H155.248V22.2772H151.824L151.678 19.901C151.158 20.7723 150.468 21.4356 149.606 21.8911C148.754 22.3465 147.755 22.5743 146.608 22.5743C144.728 22.5743 143.254 21.9901 142.186 20.8218C141.118 19.6535 140.584 18.0495 140.584 16.0099V7.42574H144.801V15.0297ZM165.797 7.12871C167.032 7.12871 168.168 7.36139 169.206 7.82673C170.244 8.29208 171.121 8.93564 171.836 9.75743L169.353 12.3861C168.971 11.9406 168.486 11.5941 167.898 11.3465C167.321 11.0891 166.713 10.9604 166.077 10.9604C165.342 10.9604 164.686 11.1287 164.108 11.4653C163.53 11.7921 163.074 12.2475 162.741 12.8317C162.408 13.4059 162.242 14.0693 162.242 14.8218C162.242 15.5842 162.408 16.2624 162.741 16.8564C163.074 17.4505 163.53 17.9158 164.108 18.2525C164.686 18.5792 165.342 18.7426 166.077 18.7426C166.713 18.7426 167.325 18.6188 167.913 18.3713C168.501 18.1139 168.981 17.7624 169.353 17.3168L171.851 19.9158C171.136 20.7475 170.259 21.401 169.221 21.8762C168.183 22.3416 167.041 22.5743 165.797 22.5743C164.289 22.5743 162.937 22.2426 161.742 21.5792C160.557 20.9059 159.621 19.9851 158.936 18.8168C158.26 17.6485 157.922 16.3267 157.922 14.8515C157.922 13.3663 158.26 12.0446 158.936 10.8861C159.621 9.71782 160.557 8.80198 161.742 8.13861C162.937 7.46535 164.289 7.12871 165.797 7.12871ZM198.122 7.42574H202.192V11.2277H198.122V16.1881C198.122 17 198.342 17.6337 198.783 18.0891C199.224 18.5347 199.772 18.7574 200.429 18.7574C201.026 18.7574 201.609 18.5693 202.177 18.1931L202.75 21.8911C201.624 22.3465 200.531 22.5743 199.474 22.5743C198.376 22.5743 197.407 22.3416 196.564 21.8762C195.732 21.401 195.08 20.7426 194.61 19.901C194.14 19.0495 193.905 18.0693 193.905 16.9604V11.2277H191.334V7.42574H194.125V3.71287H198.122V7.42574ZM70.2788 7.12871C70.5923 7.12871 70.9057 7.15347 71.2192 7.20297C71.5424 7.24257 71.8706 7.30693 72.2036 7.39604L71.6746 11.2277C71.0282 11.0396 70.416 10.9455 69.838 10.9455C69.025 10.9455 68.31 11.1337 67.6929 11.5099C67.0856 11.8762 66.6154 12.3911 66.2823 13.0545C65.9493 13.7079 65.7828 14.4752 65.7828 15.3564V22.2772H61.5659V7.42574H65.2392L65.3861 9.99505C65.8758 9.09406 66.5419 8.39109 67.3843 7.88614C68.2267 7.38119 69.1915 7.12871 70.2788 7.12871ZM137.014 7.12871C137.327 7.12871 137.641 7.15347 137.954 7.20297C138.278 7.24257 138.606 7.30693 138.939 7.39604L138.41 11.2277C137.763 11.0396 137.151 10.9455 136.573 10.9455C135.76 10.9455 135.045 11.1337 134.428 11.5099C133.821 11.8762 133.351 12.3911 133.018 13.0545C132.684 13.7079 132.518 14.4752 132.518 15.3564V22.2772H128.301V7.42574H131.974L132.121 9.99505C132.611 9.09406 133.277 8.39109 134.119 7.88614C134.962 7.38119 135.927 7.12871 137.014 7.12871ZM178.654 13.6931L180.094 11.9406L184.325 7.42574H189.6L183.385 14.0347L190.335 22.2772H184.883L180.49 16.7079L178.654 18.401V22.2772H174.437V0H178.654V13.6931ZM116.752 10.9455C116.037 10.9455 115.396 11.1139 114.828 11.4505C114.26 11.7871 113.809 12.2525 113.476 12.8465C113.153 13.4307 112.991 14.099 112.991 14.8515C112.991 15.5941 113.153 16.2624 113.476 16.8564C113.809 17.4406 114.26 17.9059 114.828 18.2525C115.396 18.5891 116.037 18.7574 116.752 18.7574C117.448 18.7574 118.075 18.599 118.633 18.2822C119.201 17.9653 119.652 17.5347 119.985 16.9901C120.328 16.4356 120.499 15.8069 120.499 15.104V14.5693C120.499 13.8663 120.328 13.2426 119.985 12.698C119.652 12.1535 119.201 11.7277 118.633 11.4208C118.075 11.104 117.448 10.9455 116.752 10.9455ZM81.0928 10.9307C80.3875 10.9307 79.7557 11.099 79.1974 11.4356C78.6391 11.7723 78.1983 12.2327 77.875 12.8168C77.5518 13.3911 77.3902 14.0495 77.3902 14.7921C77.3902 15.5347 77.5518 16.198 77.875 16.7822C78.1983 17.3663 78.6391 17.8267 79.1974 18.1634C79.7557 18.4901 80.3875 18.6535 81.0928 18.6535C81.7785 18.6535 82.4005 18.505 82.9588 18.2079C83.5171 17.901 83.9628 17.4802 84.2959 16.9455C84.6289 16.401 84.7954 15.7871 84.7954 15.104V14.4653C84.7954 13.7822 84.624 13.1733 84.2812 12.6386C83.9481 12.104 83.5024 11.6881 82.9441 11.3911C82.3956 11.0842 81.7785 10.9307 81.0928 10.9307ZM51.4278 10.6931C50.7813 10.6931 50.2034 10.8366 49.6941 11.1238C49.1945 11.4109 48.788 11.797 48.4745 12.2822C48.1611 12.7673 47.9603 13.3267 47.8721 13.9604H54.9982C54.9198 13.3168 54.719 12.7525 54.3958 12.2673C54.0823 11.7723 53.666 11.3861 53.1469 11.1089C52.6375 10.8317 52.0645 10.6931 51.4278 10.6931ZM99.4442 10.6931C98.7977 10.6931 98.2198 10.8366 97.7105 11.1238C97.2109 11.4109 96.8044 11.797 96.491 12.2822C96.1775 12.7673 95.9767 13.3267 95.8885 13.9604H103.015C102.936 13.3168 102.735 12.7525 102.412 12.2673C102.099 11.7723 101.682 11.3861 101.163 11.1089C100.654 10.8317 100.081 10.6931 99.4442 10.6931Z" fill="white"/>
</svg>
